<?xml version="1.0" encoding="UTF-8"?>
<!DOCTYPE svg PUBLIC "-//W3C//DTD SVG 1.1//EN" "http://www.w3.org/Graphics/SVG/1.1/DTD/svg11.dtd">
<!-- Creator: CorelDRAW X7 -->
<svg xmlns="http://www.w3.org/2000/svg" xml:space="preserve" width="43.3492mm" height="43.3492mm" version="1.1" style="shape-rendering:geometricPrecision; text-rendering:geometricPrecision; image-rendering:optimizeQuality; fill-rule:evenodd; clip-rule:evenodd"
viewBox="0 0 4335 4335"
 xmlns:xlink="http://www.w3.org/1999/xlink">
 <defs>
  <style type="text/css">
   <![CDATA[
    .fil3 {fill:none}
    .fil2 {fill:#99832D}
    .fil1 {fill:#B0042C}
    .fil0 {fill:#E6E6E6}
   ]]>
  </style>
   <clipPath id="id0">
    <path d="M221 0l3893 0c122,0 221,99 221,221l0 3893c0,122 -99,221 -221,221l-3893 0c-122,0 -221,-99 -221,-221l0 -3893c0,-122 99,-221 221,-221z"/>
   </clipPath>
 </defs>
 <g id="Capa_x0020_1">
  <metadata id="CorelCorpID_0Corel-Layer"/>
  <path class="fil0" d="M221 0l3893 0c122,0 221,99 221,221l0 3893c0,122 -99,221 -221,221l-3893 0c-122,0 -221,-99 -221,-221l0 -3893c0,-122 99,-221 221,-221z"/>
  <g style="clip-path:url(#id0)">
   <g id="_394571936">
    <path id="1" class="fil1" d="M102 2916c0,163 122,137 250,137l0 847 -145 0c-140,0 -140,242 0,242l629 0 0 -581c0,-123 41,-204 99,-272 88,-103 272,-148 415,-80 84,39 147,103 183,188 17,41 29,108 29,164l0 581 242 0 0 -581c0,-389 431,-486 624,-276 25,26 58,76 73,112 17,41 30,108 30,164l0 581 242 0 0 -581c0,-123 41,-204 99,-272 180,-211 627,-127 627,272l0 581 630 0c139,0 139,-242 0,-242l-145 0 0 -847 145 0c139,0 139,-242 0,-242l-3922 0c-50,0 -105,55 -105,105z"/>
    <path class="fil1" d="M884 1893l2567 0c-25,-108 -115,-296 -173,-376 -21,-29 -36,-51 -58,-79 -60,-81 -128,-142 -203,-209 -161,-144 -490,-304 -793,-304 -227,0 -359,14 -564,97 -142,58 -307,164 -414,272l-131 144c-93,123 -194,297 -231,455z"/>
    <path class="fil2" d="M513 2150c0,172 137,137 323,137l0 282 339 0 0 -282 242 0 0 282 339 0 0 -282 242 0 0 282 339 0 0 -282 242 0 0 282 339 0 0 -282 242 0 0 282 339 0 0 -282 218 0c140,0 140,-242 0,-242l-3099 0c-49,0 -105,55 -105,105z"/>
    <path class="fil1" d="M2047 548c-103,24 -198,97 -252,184 -19,29 -39,62 -47,98l196 -38c202,-30 346,-21 544,16 29,5 66,19 99,22 -28,-123 -168,-252 -298,-282 0,-101 17,-261 -26,-313 -21,-24 -50,-39 -80,-42l-33 0c-54,6 -102,46 -104,120 -1,77 1,157 1,235z"/>
    <path class="fil1" d="M1078 3521l0 621 242 0 0 -621c0,-139 -242,-139 -242,0z"/>
    <path class="fil1" d="M2047 3521l0 621 242 0 0 -621c0,-139 -242,-139 -242,0z"/>
    <path class="fil1" d="M3015 3521l0 621 242 0 0 -621c0,-139 -242,-139 -242,0z"/>
   </g>
  </g>
  <path class="fil3" d="M221 0l3893 0c122,0 221,99 221,221l0 3893c0,122 -99,221 -221,221l-3893 0c-122,0 -221,-99 -221,-221l0 -3893c0,-122 99,-221 221,-221z"/>
 </g>
</svg>
